<svg version="1.1" xmlns="http://www.w3.org/2000/svg" x="0px" y="0px" viewBox="0 0 500 600" xml:space="preserve">
    <path class="a" d="M37.58,36.68c49.85-48.9,130.94-48.9,180.78,0a124,124,0,0,1,9.14,10,123.46,123.46,0,0,1,9.14-10c49.84-48.91,130.93-48.9,180.78,0a124,124,0,0,1,34.63,115.55,14.22,14.22,0,0,1-27.78-6.07A95.69,95.69,0,0,0,397.51,57c-38.86-38.13-102.09-38.13-140.95,0a97.92,97.92,0,0,0-16.67,21.84,14.21,14.21,0,0,1-24.77,0A98,98,0,0,0,198.44,57C159.59,18.85,96.35,18.85,57.5,57a95.72,95.72,0,0,0-26.77,89.19,14.22,14.22,0,1,1-27.78,6.07A124,124,0,0,1,37.58,36.68Z"/>
    <path class="b" d="M387.49,244.58l-150,149.28a14.21,14.21,0,0,1-20.06,0l-150-149.28a14.22,14.22,0,1,1,20.06-20.15L227.5,363.72,367.42,224.43A14.22,14.22,0,1,1,387.49,244.58Z"/>
    <path class="c" d="M440.78,206.07l-156.41,1.85c-6.24,0-11.49-5.21-13.4-11.29l-15-37.58L240.7,197.13l-28.44,71.08a14.2,14.2,0,0,1-26.35.08l-0.06-.12L161,206H14.22a14,14,0,1,1,0-28H170.62a14,14,0,0,1,13.19,8.78s0-.1,0-0.11l15.24,38L214.3,186.6l28.44-71.09a14.2,14.2,0,0,1,26.34-.11s0,0.24.06,0.28L294,178H440.78A14,14,0,1,1,440.78,206.07Z"/>
    <defs>
        <style>.a{fill:url(#a);}.b{fill:url(#b);}.c{fill:url(#c);}.d{fill:url(#d);}</style>
        <linearGradient id="a" x1="94.19" y1="-19.94" x2="360.8" y2="246.67" gradientUnits="userSpaceOnUse">
            <stop offset="0" stop-color="#90caf9">
                <animate attributeName="stop-color" values="#90caf9; #0d47a1; #90caf9" dur="3s" repeatCount="indefinite" calcMode = "paced"/>
            </stop>
            <stop offset="1" stop-color="#0d47a1">
                <animate attributeName="stop-color" values="#0d47a1; #90caf9; #0d47a1" dur="2s" repeatCount="indefinite" calcMode = "paced" />
            </stop>
        </linearGradient>
        <linearGradient id="b" x1="142.47" y1="149.47" x2="312.53" y2="319.54" href="#a"/><linearGradient id="c" x1="110.85" y1="75.36" x2="344.16" y2="308.67" href="#a"/>
    </defs>
</svg>