<svg xmlns="http://www.w3.org/2000/svg" width="100%" height="100%">
    <style>
        @media(max-width: 960px) {
            .hidden-sm {
                display: block;
            }
            .hidden-md {
                display: block;
            }
            .hidden-lg {
                display: none;
            }
        }

        @media(max-width: 728px) {
            .hidden-sm {
                display: block;
            }
            .hidden-md {
                display: none;
            }
            .hidden-lg {
                display: none;
            }
        }

        @media(max-width: 480px) {
            .hidden-sm {
                display: none;
            }
            .hidden-md {
                display: none;
            }
            .hidden-lg {
                display: none;
            }
        }

        .climacon_componentWrap-sun {
            -webkit-animation-name: rotate;
            animation-name: rotate;
            -webkit-animation-iteration-count: infinite;
            animation-iteration-count: infinite;
            -webkit-animation-timing-function: linear;
            animation-timing-function: linear;
            -webkit-transform-origin: 50% 50%;
            transform-origin: 50% 50%;
            -webkit-animation-duration: 15s;
            animation-duration: 15s;
            -webkit-animation-direction: normal;
            animation-direction: normal;
        }

        @keyframes rotate {
            0% {
                -webkit-transform: rotate(0);
                transform: rotate(0);
            }
            100% {
                -webkit-transform: rotate(360deg);
                transform: rotate(360deg);
            }
        }

    </style>
    <rect id="backgroundrect" width="100vw" height="100vw" x="0" y="0" stroke="none" fill="#ffffff" />


    <clipPath id="sunFillClip">
        <path d="M0,0v100h100V0H0z M50.001,57.999c-4.417,0-8-3.582-8-7.999c0-4.418,3.582-7.999,8-7.999s7.998,3.581,7.998,7.999C57.999,54.417,54.418,57.999,50.001,57.999z"/>
    </clipPath>
    <g class="climacon_iconWrap climacon_iconWrap-sun hidden-sm">
        <g class="climacon_componentWrap climacon_componentWrap-sun">
            <g class="climacon_componentWrap climacon_componentWrap-sunSpoke">
                <path class="climacon_component climacon_component-stroke climacon_component-stroke_sunSpoke climacon_component-stroke_sunSpoke-east"
                      d="M72.03,51.999h-3.998c-1.105,0-2-0.896-2-1.999s0.895-2,2-2h3.998c1.104,0,2,0.896,2,2S73.136,51.999,72.03,51.999z"/>
                <path class="climacon_component climacon_component-stroke climacon_component-stroke_sunSpoke climacon_component-stroke_sunSpoke-northEast"
                      d="M64.175,38.688c-0.781,0.781-2.049,0.781-2.828,0c-0.781-0.781-0.781-2.047,0-2.828l2.828-2.828c0.779-0.781,2.047-0.781,2.828,0c0.779,0.781,0.779,2.047,0,2.828L64.175,38.688z"/>
                <path class="climacon_component climacon_component-stroke climacon_component-stroke_sunSpoke climacon_component-stroke_sunSpoke-north"
                      d="M50.034,34.002c-1.105,0-2-0.896-2-2v-3.999c0-1.104,0.895-2,2-2c1.104,0,2,0.896,2,2v3.999C52.034,33.106,51.136,34.002,50.034,34.002z"/>
                <path class="climacon_component climacon_component-stroke climacon_component-stroke_sunSpoke climacon_component-stroke_sunSpoke-northWest"
                      d="M35.893,38.688l-2.827-2.828c-0.781-0.781-0.781-2.047,0-2.828c0.78-0.781,2.047-0.781,2.827,0l2.827,2.828c0.781,0.781,0.781,2.047,0,2.828C37.94,39.469,36.674,39.469,35.893,38.688z"/>
                <path class="climacon_component climacon_component-stroke climacon_component-stroke_sunSpoke climacon_component-stroke_sunSpoke-west"
                      d="M34.034,50c0,1.104-0.896,1.999-2,1.999h-4c-1.104,0-1.998-0.896-1.998-1.999s0.896-2,1.998-2h4C33.14,48,34.034,48.896,34.034,50z"/>
                <path class="climacon_component climacon_component-stroke climacon_component-stroke_sunSpoke climacon_component-stroke_sunSpoke-southWest"
                      d="M35.893,61.312c0.781-0.78,2.048-0.78,2.827,0c0.781,0.78,0.781,2.047,0,2.828l-2.827,2.827c-0.78,0.781-2.047,0.781-2.827,0c-0.781-0.78-0.781-2.047,0-2.827L35.893,61.312z"/>
                <path class="climacon_component climacon_component-stroke climacon_component-stroke_sunSpoke climacon_component-stroke_sunSpoke-south"
                      d="M50.034,65.998c1.104,0,2,0.895,2,1.999v4c0,1.104-0.896,2-2,2c-1.105,0-2-0.896-2-2v-4C48.034,66.893,48.929,65.998,50.034,65.998z"/>
                <path class="climacon_component climacon_component-stroke climacon_component-stroke_sunSpoke climacon_component-stroke_sunSpoke-southEast"
                      d="M64.175,61.312l2.828,2.828c0.779,0.78,0.779,2.047,0,2.827c-0.781,0.781-2.049,0.781-2.828,0l-2.828-2.827c-0.781-0.781-0.781-2.048,0-2.828C62.126,60.531,63.392,60.531,64.175,61.312z"/>
            </g>
            <g class="climacon_componentWrap climacon_componentWrap_sunBody" clip-path="url(#sunFillClip)">
                <circle class="climacon_component climacon_component-stroke climacon_component-stroke_sunBody"
                        cx="50.034"
                        cy="50"
                        r="11.999"/>
            </g>
        </g>
    </g>

    <g class="currentLayer">
        <!-- wrapper box -->
        <rect stroke="#222222" x="15vw" y="20vw" width="70vw" height="40vw" fill="#ffffff" />

        <!-- roof inner -->
        <line x1="15vw" y1="20vw" x2="50vw" y2="7vw" stroke="#222222" stroke-width="1" />
        <line x1="50vw" y1="7vw" x2="85vw" y2="20vw" stroke="#222222" stroke-width="1" />

        <!-- roof outer -->
        <g class="hidden-md">
            <line x1="7vw" y1="20vw" x2="50vw" y2="3vw" stroke="#222222" stroke-width="1" />
            <line x1="50vw" y1="3vw" x2="93vw" y2="20vw" stroke="#222222" stroke-width="1" />
        </g>

        <!-- window -->
        <g class="hidden-sm">
            <rect stroke="#222222" x="20vw" y="35vw" width="10vw" height="10vw" fill="#ffffff" />

            <g class="hidden-md">
                <!-- horizontal line -->
                <line x1="20vw" y1="40vw" x2="30vw" y2="40vw" stroke="#222222" stroke-width="1" />
                <!-- vertical line -->
                <line x1="25vw" y1="35vw" x2="25vw" y2="45vw" stroke="#222222" stroke-width="1" />
            </g>
        </g>

        <!-- door -->
        <g class="hidden-sm">
            <rect stroke="#222222" x="70vw" y="35vw" width="10vw" height="25vw" fill="#ffffff" />
            <circle r="5" cx="72vw" cy="47vw" fill="#222222" class="hidden-md" />
        </g>

        <!-- bottom wrapper -->
        <rect stroke="#222222" x="10vw" y="60vw" width="80vw" height="5vw" rx="20" ry="20" fill="#ffffff" class="hidden-sm" />
    </g>
</svg>