<svg version="1.1" xmlns="http://www.w3.org/2000/svg" x="0px" y="0px"
	 viewBox="0 0 495.2 495.2" style="enable-background:new 0 0 495.2 495.2;" xml:space="preserve">
	<style>
		@import url(views.css);
		@import url(svg-home.css);
	</style>
	<!-- chimney -->
	<g class="hidden-md">
		<rect x="360" y="47.6" class="chimney" width="80" height="152"/>
		<rect x="352" y="31.6" class="chimney-top" width="96" height="16"/>
	</g>

	<!-- grass -->
	<g class="grass hidden-sm">
		<rect y="431.6" class="grass" width="488" height="32"/>
		<polygon class="grass hidden-md" points="56,362 72,354 88,362 88,448.4 72,456.4 56,448.4 "/>
		<polygon class="grass hidden-md" points="0,362 16,354 32,362 32,448.4 16,456.4 0,448.4 "/>
		<rect x="16" y="391.6" class="grass hidden-md" width="56" height="16"/>
	</g>

	<!-- house wrapper -->
	<g>
		<rect class="house-wrapper" x="112" y="223.6" width="328" height="224"/>
		<polyline class="house-wrapper-top hidden-sm" points="112,223.6 440,223.6 440,447.6 "/>
	</g>

	<!-- door -->
	<g>
		<path class="door-top" d="M256,431.6V282c0-7.2-2.4-10.4-9.6-10.4H172c-7.2,0-12,4-12,10.4v149.6H256z"/>
		<path class="door-bottom" d="M256,359.6V282c0-7.2-2.4-10.4-9.6-10.4H172c-7.2,0-12,4-12,10.4"/>
	</g>

	<!-- door's handler -->
	<g class="hidden-sm">
		<path class="door-handler-top" d="M246.4,352.4c0,7.2-5.6,13.6-13.6,13.6c-7.2,0-13.6-5.6-13.6-13.6c0-7.2,5.6-13.6,13.6-13.6
		C240,338.8,246.4,344.4,246.4,352.4z"/>
		<path class="door-handler-bottom" d="M242.4,342.8c5.6,4.8,4.8,13.6,0,19.2s-13.6,4.8-19.2,0"/>
	</g>

	<!-- window -->
	<g class="hidden-sm">
		<path class="window-top-right" d="M344,311.6h48V282c0-7.2-8-10.4-15.2-10.4H344V311.6z"/>
		<path class="window-top-left" d="M336,311.6v-40h-36c-7.2,0-12,4-12,10.4v29.6H336z"/>
		<path class="window-bottom-left" d="M336,319.6h-48v31.2c0,7.2,4.8,8.8,12,8.8h36V319.6z"/>
		<path class="window-bottom-right" d="M344,319.6v40h32.8c7.2,0,15.2-1.6,15.2-8.8v-31.2H344z"/>
	</g>

	<!-- roof -->
	<g>
		<polygon class="roof-left" points="495.2,223.6 276,52.4 57.6,223.6 "/>
		<polygon class="roof-right" points="495.2,223.6 276,52.4 164.8,223.6 "/>
		<g class="hidden-sm">
			<polygon style="fill:#C43D27;" points="119.2,175.6 433.6,175.6 413.6,159.6 139.2,159.6 	"/>
			<polygon style="fill:#C43D27;" points="190.4,119.6 362.4,119.6 352,111.6 200.8,111.6 	"/>
		</g>
	</g>
</svg>
