<svg fill="#000000" xmlns="http://www.w3.org/2000/svg" viewBox="0 0 48 48.000001" version="1.1" x="0px"
     y="0px">
	<style>
		@import url(../common/views.css);
		@import url(responsive.css);
	</style>
    <g transform="translate(0,-1004.3622)">
        <g>
            <g>
                <!-- cake bottom line  -->
                <path style="color:#000000;font-style:normal;font-variant:normal;font-weight:normal;font-stretch:normal;font-size:medium;line-height:normal;font-family:sans-serif;text-indent:0;text-align:start;text-decoration:none;text-decoration-line:none;text-decoration-style:solid;text-decoration-color:#000000;letter-spacing:normal;word-spacing:normal;text-transform:none;direction:ltr;block-progression:tb;writing-mode:lr-tb;baseline-shift:baseline;text-anchor:start;white-space:normal;clip-rule:nonzero;display:inline;overflow:visible;visibility:visible;isolation:auto;mix-blend-mode:normal;color-interpolation:sRGB;color-interpolation-filters:linearRGB;solid-color:#000000;fill:#000000;fill-rule:nonzero;stroke:none;stroke-width:1;stroke-linecap:butt;stroke-linejoin:miter;stroke-miterlimit:4;stroke-dasharray:none;stroke-dashoffset:0;color-rendering:auto;image-rendering:auto;shape-rendering:auto;text-rendering:auto;enable-background:accumulate"
                      d="m 4.5,1045.1113 c -1.3763514,0 -2.5,1.1237 -2.5,2.5 0,1.3764 1.1236486,2.5 2.5,2.5 l 39,0 c 1.376351,0 2.5,-1.1236 2.5,-2.5 0,-1.3763 -1.123649,-2.5 -2.5,-2.5 l -39,0 z m 0,1 39,0 c 0.839649,0 1.5,0.6604 1.5,1.5 0,0.8397 -0.660351,1.5 -1.5,1.5 l -39,0 c -0.8396486,0 -1.5,-0.6603 -1.5,-1.5 0,-0.8396 0.6603514,-1.5 1.5,-1.5 z"/>

                <!-- cake medium line - wrapper -->
                <path style="color:#000000;font-style:normal;font-variant:normal;font-weight:normal;font-stretch:normal;font-size:medium;line-height:normal;font-family:sans-serif;text-indent:0;text-align:start;text-decoration:none;text-decoration-line:none;text-decoration-style:solid;text-decoration-color:#000000;letter-spacing:normal;word-spacing:normal;text-transform:none;direction:ltr;block-progression:tb;writing-mode:lr-tb;baseline-shift:baseline;text-anchor:start;white-space:normal;clip-rule:nonzero;display:inline;overflow:visible;visibility:visible;isolation:auto;mix-blend-mode:normal;color-interpolation:sRGB;color-interpolation-filters:linearRGB;solid-color:#000000;fill:#000000;fill-rule:nonzero;stroke:none;stroke-width:1;stroke-linecap:round;stroke-linejoin:round;stroke-miterlimit:4;stroke-dasharray:none;stroke-dashoffset:0;color-rendering:auto;image-rendering:auto;shape-rendering:auto;text-rendering:auto;enable-background:accumulate"
                      d="m 6.4257812,1033.002 c -1.3449662,0 -2.5,0.981 -2.5,2.5 l 0,9.9375 c -0.00956,0.6761 1.0095626,0.6761 1,0 l 0,-9.9375 c 0,-0.8397 0.6603514,-1.5 1.5,-1.5 l 35.1503908,0 c 0.839648,0 1.5,0.6603 1.5,1.5 l 0,9.9375 c -0.0096,0.6761 1.009563,0.6761 1,0 l 0,-9.9375 c 0,-1.3764 -1.123649,-2.5 -2.5,-2.5 l -35.1445314,0 z"/>

                <!-- cake medium line - wave -->
                <path class="hidden-md" style="color:#000000;font-style:normal;font-variant:normal;font-weight:normal;font-stretch:normal;font-size:medium;line-height:normal;font-family:sans-serif;text-indent:0;text-align:start;text-decoration:none;text-decoration-line:none;text-decoration-style:solid;text-decoration-color:#000000;letter-spacing:normal;word-spacing:normal;text-transform:none;direction:ltr;block-progression:tb;writing-mode:lr-tb;baseline-shift:baseline;text-anchor:start;white-space:normal;clip-rule:nonzero;display:inline;overflow:visible;visibility:visible;isolation:auto;mix-blend-mode:normal;color-interpolation:sRGB;color-interpolation-filters:linearRGB;solid-color:#000000;fill:#000000;fill-rule:evenodd;stroke:none;stroke-width:1px;stroke-linecap:butt;stroke-linejoin:miter;stroke-miterlimit:4;stroke-dasharray:none;stroke-dashoffset:0;color-rendering:auto;image-rendering:auto;shape-rendering:auto;text-rendering:auto;enable-background:accumulate"
                      d="m 9.21875,1036.0762 c -0.9358694,0 -1.5967883,0.625 -2.1660156,1.125 -0.5692274,0.5 -1.0465392,0.875 -1.5039063,0.875 -0.2801821,0 -0.5550575,-0.1239 -0.8730469,-0.3535 l -0.5859374,0.8105 c 0.4028164,0.2909 0.8857171,0.543 1.4589843,0.543 0.9358693,0 1.5948352,-0.6231 2.1640625,-1.1231 0.5692274,-0.5 1.0484922,-0.8769 1.5058594,-0.8769 0.4573676,0 0.934679,0.3769 1.503906,0.8769 0.569228,0.5 1.230147,1.1231 2.166016,1.1231 0.935869,0 1.594835,-0.6231 2.164062,-1.1231 0.569228,-0.5 1.048493,-0.8769 1.50586,-0.8769 0.457367,0 0.936632,0.3769 1.505859,0.8769 0.569228,0.5 1.228193,1.1231 2.164063,1.1231 0.935869,0 1.596788,-0.6231 2.166015,-1.1231 0.569228,-0.5 1.04654,-0.8769 1.503907,-0.8769 0.457366,0 0.936632,0.3769 1.505859,0.8769 0.569227,0.5 1.228193,1.1231 2.164062,1.1231 0.93587,0 1.596789,-0.6231 2.166016,-1.1231 0.569227,-0.5 1.048493,-0.8769 1.505859,-0.8769 0.457367,0 0.934679,0.3769 1.503907,0.8769 0.569227,0.5 1.230146,1.1231 2.166015,1.1231 0.93587,0 1.594835,-0.6231 2.164063,-1.1231 0.569227,-0.5 1.048492,-0.8769 1.505859,-0.8769 0.457367,0 0.934679,0.3769 1.503906,0.8769 0.569228,0.5 1.230147,1.1231 2.166016,1.1231 0.661638,0 1.195799,-0.3292 1.640625,-0.6797 l -0.619141,-0.7852 c -0.375514,0.2959 -0.698118,0.4649 -1.021484,0.4649 -0.457367,0 -0.936632,-0.375 -1.505859,-0.875 -0.569228,-0.5 -1.228194,-1.125 -2.164063,-1.125 -0.935869,0 -1.596788,0.625 -2.166016,1.125 -0.569227,0.5 -1.046538,0.875 -1.503906,0.875 -0.457367,0 -0.936632,-0.375 -1.505859,-0.875 -0.569227,-0.5 -1.228193,-1.125 -2.164063,-1.125 -0.935869,0 -1.596788,0.625 -2.166015,1.125 -0.569228,0.5 -1.048492,0.875 -1.50586,0.875 -0.457366,0 -0.934679,-0.375 -1.503906,-0.875 -0.569227,-0.5 -1.230146,-1.125 -2.166015,-1.125 -0.93587,0 -1.594836,0.625 -2.164063,1.125 -0.569227,0.5 -1.048492,0.875 -1.505859,0.875 -0.457368,0 -0.934679,-0.375 -1.503907,-0.875 -0.569227,-0.5 -1.230146,-1.125 -2.166015,-1.125 -0.935869,0 -1.594835,0.625 -2.164063,1.125 -0.569227,0.5 -1.048492,0.875 -1.505859,0.875 -0.457367,0 -0.936632,-0.375 -1.50586,-0.875 -0.569227,-0.5 -1.228192,-1.125 -2.164062,-1.125 z"/>

                <g class="hidden-sm">
                <!-- cake medium line - circle 1 -->
                <path style="color:#000000;font-style:normal;font-variant:normal;font-weight:normal;font-stretch:normal;font-size:medium;line-height:normal;font-family:sans-serif;text-indent:0;text-align:start;text-decoration:none;text-decoration-line:none;text-decoration-style:solid;text-decoration-color:#000000;letter-spacing:normal;word-spacing:normal;text-transform:none;direction:ltr;block-progression:tb;writing-mode:lr-tb;baseline-shift:baseline;text-anchor:start;white-space:normal;clip-rule:nonzero;display:inline;overflow:visible;visibility:visible;isolation:auto;mix-blend-mode:normal;color-interpolation:sRGB;color-interpolation-filters:linearRGB;solid-color:#000000;fill:#000000;fill-rule:nonzero;stroke:none;stroke-width:1;stroke-linecap:round;stroke-linejoin:round;stroke-miterlimit:4;stroke-dasharray:none;stroke-dashoffset:0;color-rendering:auto;image-rendering:auto;shape-rendering:auto;text-rendering:auto;enable-background:accumulate"
                      d="m 12.837891,1038.1133 c -1.213355,0 -2.20705,0.9937 -2.207032,2.207 -1.8e-5,1.2134 0.993677,2.209 2.207032,2.209 1.213355,0 2.20705,-0.9956 2.207031,-2.209 1.9e-5,-1.2133 -0.993676,-2.207 -2.207031,-2.207 z m 0,1 c 0.672909,0 1.207041,0.5341 1.207031,1.207 10e-6,0.6729 -0.534122,1.209 -1.207031,1.209 -0.67291,0 -1.207042,-0.5361 -1.207032,-1.209 -10e-6,-0.6729 0.534122,-1.207 1.207032,-1.207 z"/>

                <!-- cake medium line - circle 2 -->
                <path style="color:#000000;font-style:normal;font-variant:normal;font-weight:normal;font-stretch:normal;font-size:medium;line-height:normal;font-family:sans-serif;text-indent:0;text-align:start;text-decoration:none;text-decoration-line:none;text-decoration-style:solid;text-decoration-color:#000000;letter-spacing:normal;word-spacing:normal;text-transform:none;direction:ltr;block-progression:tb;writing-mode:lr-tb;baseline-shift:baseline;text-anchor:start;white-space:normal;clip-rule:nonzero;display:inline;overflow:visible;visibility:visible;isolation:auto;mix-blend-mode:normal;color-interpolation:sRGB;color-interpolation-filters:linearRGB;solid-color:#000000;fill:#000000;fill-rule:nonzero;stroke:none;stroke-width:1;stroke-linecap:round;stroke-linejoin:round;stroke-miterlimit:4;stroke-dasharray:none;stroke-dashoffset:0;color-rendering:auto;image-rendering:auto;shape-rendering:auto;text-rendering:auto;enable-background:accumulate"
                      d="m 20.308594,1038.1133 c -1.213356,0 -2.20705,0.9937 -2.207032,2.207 -1.8e-5,1.2134 0.993676,2.209 2.207032,2.209 1.213355,0 2.209003,-0.9956 2.208984,-2.209 1.9e-5,-1.2133 -0.995629,-2.207 -2.208984,-2.207 z m 0,1 c 0.672909,0 1.208995,0.5341 1.208984,1.207 1.1e-5,0.6729 -0.536075,1.209 -1.208984,1.209 -0.67291,0 -1.207042,-0.5361 -1.207032,-1.209 -10e-6,-0.6729 0.534122,-1.207 1.207032,-1.207 z"/>

                <!-- cake medium line - circle 3 -->
                <path style="color:#000000;font-style:normal;font-variant:normal;font-weight:normal;font-stretch:normal;font-size:medium;line-height:normal;font-family:sans-serif;text-indent:0;text-align:start;text-decoration:none;text-decoration-line:none;text-decoration-style:solid;text-decoration-color:#000000;letter-spacing:normal;word-spacing:normal;text-transform:none;direction:ltr;block-progression:tb;writing-mode:lr-tb;baseline-shift:baseline;text-anchor:start;white-space:normal;clip-rule:nonzero;display:inline;overflow:visible;visibility:visible;isolation:auto;mix-blend-mode:normal;color-interpolation:sRGB;color-interpolation-filters:linearRGB;solid-color:#000000;fill:#000000;fill-rule:nonzero;stroke:none;stroke-width:1;stroke-linecap:round;stroke-linejoin:round;stroke-miterlimit:4;stroke-dasharray:none;stroke-dashoffset:0;color-rendering:auto;image-rendering:auto;shape-rendering:auto;text-rendering:auto;enable-background:accumulate"
                      d="m 27.78125,1038.1133 c -1.213355,0 -2.209003,0.9937 -2.208984,2.207 -1.9e-5,1.2134 0.995629,2.209 2.208984,2.209 1.213355,0 2.20705,-0.9956 2.207031,-2.209 1.9e-5,-1.2133 -0.993676,-2.207 -2.207031,-2.207 z m 0,1 c 0.67291,0 1.207042,0.5341 1.207031,1.207 1.1e-5,0.6729 -0.534121,1.209 -1.207031,1.209 -0.672909,0 -1.208995,-0.5361 -1.208984,-1.209 -1.1e-5,-0.6729 0.536075,-1.207 1.208984,-1.207 z"/>

                <!-- cake medium line - circle 4 -->
                <path style="color:#000000;font-style:normal;font-variant:normal;font-weight:normal;font-stretch:normal;font-size:medium;line-height:normal;font-family:sans-serif;text-indent:0;text-align:start;text-decoration:none;text-decoration-line:none;text-decoration-style:solid;text-decoration-color:#000000;letter-spacing:normal;word-spacing:normal;text-transform:none;direction:ltr;block-progression:tb;writing-mode:lr-tb;baseline-shift:baseline;text-anchor:start;white-space:normal;clip-rule:nonzero;display:inline;overflow:visible;visibility:visible;isolation:auto;mix-blend-mode:normal;color-interpolation:sRGB;color-interpolation-filters:linearRGB;solid-color:#000000;fill:#000000;fill-rule:nonzero;stroke:none;stroke-width:1;stroke-linecap:round;stroke-linejoin:round;stroke-miterlimit:4;stroke-dasharray:none;stroke-dashoffset:0;color-rendering:auto;image-rendering:auto;shape-rendering:auto;text-rendering:auto;enable-background:accumulate"
                      d="m 35.251953,1038.1133 c -1.213355,0 -2.20705,0.9937 -2.207031,2.207 -1.9e-5,1.2134 0.993676,2.209 2.207031,2.209 1.213355,0 2.209003,-0.9956 2.208985,-2.209 1.8e-5,-1.2133 -0.99563,-2.207 -2.208985,-2.207 z m 0,1 c 0.67291,0 1.208995,0.5341 1.208985,1.207 1e-5,0.6729 -0.536075,1.209 -1.208985,1.209 -0.67291,0 -1.207042,-0.5361 -1.207031,-1.209 -1.1e-5,-0.6729 0.534121,-1.207 1.207031,-1.207 z"/>

                <!-- cake medium line - circle 5 -->
                <path style="color:#000000;font-style:normal;font-variant:normal;font-weight:normal;font-stretch:normal;font-size:medium;line-height:normal;font-family:sans-serif;text-indent:0;text-align:start;text-decoration:none;text-decoration-line:none;text-decoration-style:solid;text-decoration-color:#000000;letter-spacing:normal;word-spacing:normal;text-transform:none;direction:ltr;block-progression:tb;writing-mode:lr-tb;baseline-shift:baseline;text-anchor:start;white-space:normal;clip-rule:nonzero;display:inline;overflow:visible;visibility:visible;isolation:auto;mix-blend-mode:normal;color-interpolation:sRGB;color-interpolation-filters:linearRGB;solid-color:#000000;fill:#000000;fill-rule:nonzero;stroke:none;stroke-width:1;stroke-linecap:round;stroke-linejoin:round;stroke-miterlimit:4;stroke-dasharray:none;stroke-dashoffset:0;color-rendering:auto;image-rendering:auto;shape-rendering:auto;text-rendering:auto;enable-background:accumulate"
                      d="m 42.724609,1038.1133 c -1.213355,0 -2.209003,0.9937 -2.208984,2.207 -1.9e-5,1.2134 0.995629,2.209 2.208984,2.209 0.386744,0 0.766433,-0.1019 1.101563,-0.2949 0.510036,-0.3438 -0.111843,-1.2298 -0.5,-0.8672 -0.183362,0.1056 -0.389961,0.1621 -0.601563,0.1621 -0.672909,0 -1.208994,-0.5361 -1.208984,-1.209 -1e-5,-0.6729 0.536075,-1.207 1.208984,-1.207 0.211587,0 0.418213,0.054 0.601563,0.1601 0.256145,0.4014 1.013495,-0.5332 0.5,-0.8652 -0.335108,-0.193 -0.714845,-0.2949 -1.101563,-0.2949 z"/>

                <!-- cake medium line - circle 6 -->
                <path style="color:#000000;font-style:normal;font-variant:normal;font-weight:normal;font-stretch:normal;font-size:medium;line-height:normal;font-family:sans-serif;text-indent:0;text-align:start;text-decoration:none;text-decoration-line:none;text-decoration-style:solid;text-decoration-color:#000000;letter-spacing:normal;word-spacing:normal;text-transform:none;direction:ltr;block-progression:tb;writing-mode:lr-tb;baseline-shift:baseline;text-anchor:start;white-space:normal;clip-rule:nonzero;display:inline;overflow:visible;visibility:visible;isolation:auto;mix-blend-mode:normal;color-interpolation:sRGB;color-interpolation-filters:linearRGB;solid-color:#000000;fill:#000000;fill-rule:nonzero;stroke:none;stroke-width:1;stroke-linecap:round;stroke-linejoin:round;stroke-miterlimit:4;stroke-dasharray:none;stroke-dashoffset:0;color-rendering:auto;image-rendering:auto;shape-rendering:auto;text-rendering:auto;enable-background:accumulate"
                      d="m 5.3671875,1038.1133 c -0.4333747,0 -0.8573983,0.1279 -1.21875,0.3672 -0.058102,0.5558 0.2223148,1.3215 0.5507813,0.834 0.1977288,-0.131 0.4308294,-0.2012 0.6679687,-0.2012 0.6729096,0 1.2070417,0.5341 1.2070313,1.207 1.04e-5,0.6729 -0.5341217,1.209 -1.2070313,1.209 -0.2372493,0 -0.4701759,-0.07 -0.6679687,-0.2012 -0.1362216,-0.338 -1.0515019,0.4873 -0.5507813,0.834 0.3614684,0.2394 0.7851745,0.3672 1.21875,0.3672 1.3470917,0 2.2083533,-0.8746 2.2070313,-2.209 1.88e-5,-1.2133 -0.9936761,-2.207 -2.2070313,-2.207 z"/>
                </g>

                <!-- cake top line - wrapper -->
                <path style="color:#000000;font-style:normal;font-variant:normal;font-weight:normal;font-stretch:normal;font-size:medium;line-height:normal;font-family:sans-serif;text-indent:0;text-align:start;text-decoration:none;text-decoration-line:none;text-decoration-style:solid;text-decoration-color:#000000;letter-spacing:normal;word-spacing:normal;text-transform:none;direction:ltr;block-progression:tb;writing-mode:lr-tb;baseline-shift:baseline;text-anchor:start;white-space:normal;clip-rule:nonzero;display:inline;overflow:visible;visibility:visible;isolation:auto;mix-blend-mode:normal;color-interpolation:sRGB;color-interpolation-filters:linearRGB;solid-color:#000000;fill:#000000;fill-rule:nonzero;stroke:none;stroke-width:1;stroke-linecap:round;stroke-linejoin:round;stroke-miterlimit:4;stroke-dasharray:none;stroke-dashoffset:0;color-rendering:auto;image-rendering:auto;shape-rendering:auto;text-rendering:auto;enable-background:accumulate"
                      d="m 13.03125,1020.6719 c -0.560732,0 -1.020312,0.3615 -1.306641,0.8203 -0.286328,0.4588 -0.441406,1.0419 -0.441406,1.6797 l 0,10.1406 a 0.50005,0.50005 0 1 0 1,0 l 0,-10.1406 c 0,-0.4703 0.124202,-0.8862 0.289063,-1.1504 0.16486,-0.2642 0.328267,-0.3496 0.458984,-0.3496 l 21.9375,0 c 0.130717,0 0.294124,0.085 0.458984,0.3496 0.164861,0.2642 0.289063,0.6801 0.289063,1.1504 l 0,10.1406 a 0.50005,0.50005 0 1 0 1,0 l 0,-10.1406 c 0,-0.6378 -0.155078,-1.2209 -0.441406,-1.6797 -0.286329,-0.4588 -0.745909,-0.8203 -1.306641,-0.8203 l -21.929688,0 a 0.50005,0.50005 0 0 0 -0.0078,0 z"/>

                <!-- cake top line - wave -->
                <path class="hidden-md" style="color:#000000;font-style:normal;font-variant:normal;font-weight:normal;font-stretch:normal;font-size:medium;line-height:normal;font-family:sans-serif;text-indent:0;text-align:start;text-decoration:none;text-decoration-line:none;text-decoration-style:solid;text-decoration-color:#000000;letter-spacing:normal;word-spacing:normal;text-transform:none;direction:ltr;block-progression:tb;writing-mode:lr-tb;baseline-shift:baseline;text-anchor:start;white-space:normal;clip-rule:nonzero;display:inline;overflow:visible;visibility:visible;isolation:auto;mix-blend-mode:normal;color-interpolation:sRGB;color-interpolation-filters:linearRGB;solid-color:#000000;fill:#000000;fill-rule:evenodd;stroke:none;stroke-width:1px;stroke-linecap:butt;stroke-linejoin:miter;stroke-miterlimit:4;stroke-dasharray:none;stroke-dashoffset:0;color-rendering:auto;image-rendering:auto;shape-rendering:auto;text-rendering:auto;enable-background:accumulate"
                      d="m 16.558594,1023.7461 c -0.935869,0 -1.596789,0.625 -2.166016,1.125 -0.569227,0.5 -1.046539,0.875 -1.503906,0.875 -0.275188,0 -0.545965,-0.1195 -0.857422,-0.3418 l -0.580078,0.8145 c 0.397841,0.2839 0.874418,0.5273 1.4375,0.5273 0.935869,0 1.594835,-0.625 2.164062,-1.125 0.569228,-0.5 1.048493,-0.875 1.50586,-0.875 0.457367,0 0.936632,0.375 1.505859,0.875 0.569228,0.5 1.228193,1.125 2.164063,1.125 0.935869,0 1.596788,-0.625 2.166015,-1.125 0.569228,-0.5 1.04654,-0.875 1.503907,-0.875 0.457366,0 0.936632,0.375 1.505859,0.875 0.569227,0.5 1.228193,1.125 2.164062,1.125 0.93587,0 1.596789,-0.625 2.166016,-1.125 0.569227,-0.5 1.046539,-0.875 1.503906,-0.875 0.457367,0 0.936632,0.375 1.50586,0.875 0.569227,0.5 1.230146,1.125 2.166015,1.125 0.651485,0 1.179096,-0.3204 1.619141,-0.6641 l -0.615235,-0.789 c -0.368841,0.2881 -0.685525,0.4531 -1.003906,0.4531 -0.457367,0 -0.936632,-0.375 -1.505859,-0.875 -0.569227,-0.5 -1.230147,-1.125 -2.166016,-1.125 -0.935869,0 -1.594835,0.625 -2.164062,1.125 -0.569228,0.5 -1.048492,0.875 -1.50586,0.875 -0.457366,0 -0.934679,-0.375 -1.503906,-0.875 -0.569227,-0.5 -1.230146,-1.125 -2.166015,-1.125 -0.93587,0 -1.594836,0.625 -2.164063,1.125 -0.569227,0.5 -1.048492,0.875 -1.505859,0.875 -0.457368,0 -0.936632,-0.375 -1.50586,-0.875 -0.569227,-0.5 -1.228193,-1.125 -2.164062,-1.125 z"/>

                <g class="hidden-sm">
                <!-- cake top line - circle 1 -->
                <path style="color:#000000;font-style:normal;font-variant:normal;font-weight:normal;font-stretch:normal;font-size:medium;line-height:normal;font-family:sans-serif;text-indent:0;text-align:start;text-decoration:none;text-decoration-line:none;text-decoration-style:solid;text-decoration-color:#000000;letter-spacing:normal;word-spacing:normal;text-transform:none;direction:ltr;block-progression:tb;writing-mode:lr-tb;baseline-shift:baseline;text-anchor:start;white-space:normal;clip-rule:nonzero;display:inline;overflow:visible;visibility:visible;isolation:auto;mix-blend-mode:normal;color-interpolation:sRGB;color-interpolation-filters:linearRGB;solid-color:#000000;fill:#000000;fill-rule:nonzero;stroke:none;stroke-width:1;stroke-linecap:round;stroke-linejoin:round;stroke-miterlimit:4;stroke-dasharray:none;stroke-dashoffset:0;color-rendering:auto;image-rendering:auto;shape-rendering:auto;text-rendering:auto;enable-background:accumulate"
                      d="m 12.837891,1025.7402 c -0.493871,0 -0.974653,0.166 -1.363282,0.4707 -0.349799,0.3532 0.435872,1.084 0.617188,0.7871 0.212695,-0.1667 0.475799,-0.2578 0.746094,-0.2578 0.672909,0 1.207041,0.5361 1.207031,1.209 -2.9e-5,0.6729 -0.53415,1.2071 -1.207031,1.207 -0.270619,1e-4 -0.53327,-0.091 -0.746094,-0.2578 -0.156168,-0.3061 -0.687303,0.5055 -0.617188,0.7871 0.388863,0.3055 0.868818,0.4708 1.363282,0.4707 1.39706,0 2.207031,-1.0641 2.207031,-2.207 1.9e-5,-1.2133 -0.993676,-2.209 -2.207031,-2.209 z"/>

                <!-- cake top line - circle 2 -->
                <path style="color:#000000;font-style:normal;font-variant:normal;font-weight:normal;font-stretch:normal;font-size:medium;line-height:normal;font-family:sans-serif;text-indent:0;text-align:start;text-decoration:none;text-decoration-line:none;text-decoration-style:solid;text-decoration-color:#000000;letter-spacing:normal;word-spacing:normal;text-transform:none;direction:ltr;block-progression:tb;writing-mode:lr-tb;baseline-shift:baseline;text-anchor:start;white-space:normal;clip-rule:nonzero;display:inline;overflow:visible;visibility:visible;isolation:auto;mix-blend-mode:normal;color-interpolation:sRGB;color-interpolation-filters:linearRGB;solid-color:#000000;fill:#000000;fill-rule:nonzero;stroke:none;stroke-width:1;stroke-linecap:round;stroke-linejoin:round;stroke-miterlimit:4;stroke-dasharray:none;stroke-dashoffset:0;color-rendering:auto;image-rendering:auto;shape-rendering:auto;text-rendering:auto;enable-background:accumulate"
                      d="m 20.308594,1025.7402 c -1.213356,0 -2.20705,0.9957 -2.207032,2.209 5.3e-5,1.2133 0.993726,2.2071 2.207032,2.207 1.213306,1e-4 2.208932,-0.9937 2.208984,-2.207 1.9e-5,-1.2133 -0.995629,-2.209 -2.208984,-2.209 z m 0,1 c 0.672909,0 1.208995,0.5361 1.208984,1.209 -2.9e-5,0.6729 -0.536103,1.2071 -1.208984,1.207 -0.672881,1e-4 -1.207003,-0.5341 -1.207032,-1.207 -10e-6,-0.6729 0.534122,-1.209 1.207032,-1.209 z"/>

                <!-- cake top line - circle 3 -->
                <path style="color:#000000;font-style:normal;font-variant:normal;font-weight:normal;font-stretch:normal;font-size:medium;line-height:normal;font-family:sans-serif;text-indent:0;text-align:start;text-decoration:none;text-decoration-line:none;text-decoration-style:solid;text-decoration-color:#000000;letter-spacing:normal;word-spacing:normal;text-transform:none;direction:ltr;block-progression:tb;writing-mode:lr-tb;baseline-shift:baseline;text-anchor:start;white-space:normal;clip-rule:nonzero;display:inline;overflow:visible;visibility:visible;isolation:auto;mix-blend-mode:normal;color-interpolation:sRGB;color-interpolation-filters:linearRGB;solid-color:#000000;fill:#000000;fill-rule:nonzero;stroke:none;stroke-width:1;stroke-linecap:round;stroke-linejoin:round;stroke-miterlimit:4;stroke-dasharray:none;stroke-dashoffset:0;color-rendering:auto;image-rendering:auto;shape-rendering:auto;text-rendering:auto;enable-background:accumulate"
                      d="m 27.78125,1025.7402 c -1.213355,0 -2.209003,0.9957 -2.208984,2.209 5.2e-5,1.2133 0.995678,2.2071 2.208984,2.207 1.213306,0 2.206979,-0.9937 2.207031,-2.207 1.9e-5,-1.2133 -0.993676,-2.209 -2.207031,-2.209 z m 0,1 c 0.672909,0 1.207042,0.5361 1.207031,1.209 -2.9e-5,0.6729 -0.53415,1.207 -1.207031,1.207 -0.672881,1e-4 -1.208955,-0.5341 -1.208984,-1.207 -1.1e-5,-0.6729 0.536074,-1.209 1.208984,-1.209 z"/>

                <!-- cake top line - circle 4 -->
                <path style="color:#000000;font-style:normal;font-variant:normal;font-weight:normal;font-stretch:normal;font-size:medium;line-height:normal;font-family:sans-serif;text-indent:0;text-align:start;text-decoration:none;text-decoration-line:none;text-decoration-style:solid;text-decoration-color:#000000;letter-spacing:normal;word-spacing:normal;text-transform:none;direction:ltr;block-progression:tb;writing-mode:lr-tb;baseline-shift:baseline;text-anchor:start;white-space:normal;clip-rule:nonzero;display:inline;overflow:visible;visibility:visible;isolation:auto;mix-blend-mode:normal;color-interpolation:sRGB;color-interpolation-filters:linearRGB;solid-color:#000000;fill:#000000;fill-rule:nonzero;stroke:none;stroke-width:1;stroke-linecap:round;stroke-linejoin:round;stroke-miterlimit:4;stroke-dasharray:none;stroke-dashoffset:0;color-rendering:auto;image-rendering:auto;shape-rendering:auto;text-rendering:auto;enable-background:accumulate"
                      d="m 35.251953,1025.7402 c -1.213355,0 -2.20705,0.9957 -2.207031,2.209 5.2e-5,1.2133 0.993725,2.2071 2.207031,2.207 0.445054,1e-4 0.880788,-0.1333 1.248047,-0.3847 0.318568,-0.2614 -0.421164,-1.0011 -0.566406,-0.8262 -0.200968,0.1376 -0.438103,0.211 -0.681641,0.2109 -0.672881,1e-4 -1.207002,-0.5341 -1.207031,-1.207 -1.1e-5,-0.6729 0.534121,-1.209 1.207031,-1.209 0.243408,0 0.480738,0.073 0.681641,0.211 0.06635,0.5627 1.097074,-0.4391 0.564453,-0.8242 -0.367141,-0.2512 -0.801277,-0.3868 -1.246094,-0.3868 z"/>
                </g>
                <!-- cake candle 3 -->
                <g>
                    <path style="color:#000000;font-style:normal;font-variant:normal;font-weight:normal;font-stretch:normal;font-size:medium;line-height:normal;font-family:sans-serif;text-indent:0;text-align:start;text-decoration:none;text-decoration-line:none;text-decoration-style:solid;text-decoration-color:#000000;letter-spacing:normal;word-spacing:normal;text-transform:none;direction:ltr;block-progression:tb;writing-mode:lr-tb;baseline-shift:baseline;text-anchor:start;white-space:normal;clip-rule:nonzero;display:inline;overflow:visible;visibility:visible;isolation:auto;mix-blend-mode:normal;color-interpolation:sRGB;color-interpolation-filters:linearRGB;solid-color:#000000;fill:#000000;fill-rule:nonzero;stroke:none;stroke-width:0.99999988;stroke-linecap:butt;stroke-linejoin:miter;stroke-miterlimit:4;stroke-dasharray:none;stroke-dashoffset:0;color-rendering:auto;image-rendering:auto;shape-rendering:auto;text-rendering:auto;enable-background:accumulate"
                          d="m 26.099609,1013.0117 c -0.938019,0 -1.699218,0.7824 -1.699218,1.7227 l 0,6.2109 1,0 0,-6.2109 c 0,-0.4127 0.307282,-0.7227 0.699218,-0.7227 l 0.07031,0 c 0.391936,0 0.701172,0.31 0.701172,0.7227 l 0,6.2109 1,0 0,-6.2109 c 0,-0.9403 -0.763153,-1.7227 -1.701172,-1.7227 l -0.07031,0 z"/>
                    <path style="color:#000000;font-style:normal;font-variant:normal;font-weight:normal;font-stretch:normal;font-size:medium;line-height:normal;font-family:sans-serif;text-indent:0;text-align:start;text-decoration:none;text-decoration-line:none;text-decoration-style:solid;text-decoration-color:#000000;letter-spacing:normal;word-spacing:normal;text-transform:none;direction:ltr;block-progression:tb;writing-mode:lr-tb;baseline-shift:baseline;text-anchor:start;white-space:normal;clip-rule:nonzero;display:inline;overflow:visible;visibility:visible;isolation:auto;mix-blend-mode:normal;color-interpolation:sRGB;color-interpolation-filters:linearRGB;solid-color:#000000;fill:#000000;fill-rule:evenodd;stroke:none;stroke-width:0.99999988px;stroke-linecap:butt;stroke-linejoin:miter;stroke-miterlimit:4;stroke-dasharray:none;stroke-dashoffset:0;color-rendering:auto;image-rendering:auto;shape-rendering:auto;text-rendering:auto;enable-background:accumulate"
                          d="m 26.634766,1012.4082 -1,0 0.002,1.0859 1,-0 -0.002,-1.0859 z"/>
                    <path style="color:#000000;font-style:normal;font-variant:normal;font-weight:normal;font-stretch:normal;font-size:medium;line-height:normal;font-family:sans-serif;text-indent:0;text-align:start;text-decoration:none;text-decoration-line:none;text-decoration-style:solid;text-decoration-color:#000000;letter-spacing:normal;word-spacing:normal;text-transform:none;direction:ltr;block-progression:tb;writing-mode:lr-tb;baseline-shift:baseline;text-anchor:start;white-space:normal;clip-rule:nonzero;display:inline;overflow:visible;visibility:visible;isolation:auto;mix-blend-mode:normal;color-interpolation:sRGB;color-interpolation-filters:linearRGB;solid-color:#000000;fill:#000000;fill-rule:evenodd;stroke:none;stroke-width:1px;stroke-linecap:butt;stroke-linejoin:miter;stroke-miterlimit:4;stroke-dasharray:none;stroke-dashoffset:0;color-rendering:auto;image-rendering:auto;shape-rendering:auto;text-rendering:auto;enable-background:accumulate"
                          d="m 26.046875,1007.6973 -0.378906,0.4375 c -0.367727,0.4254 -0.995224,1.4076 -1.273438,2.455 -0.139107,0.5238 -0.199268,1.0838 0.06445,1.5918 0.263722,0.5081 0.866514,0.8079 1.626954,0.8106 l 0.002,0 c 0.758112,0 1.364972,-0.3181 1.607421,-0.8379 0.24245,-0.5198 0.158626,-1.0777 0.0059,-1.6035 -0.305532,-1.0517 -0.934411,-2.0229 -1.275391,-2.416 l -0.378906,-0.4375 z m 0.0039,1.8164 c 0.261344,0.4216 0.537389,0.7843 0.691407,1.3144 0.119453,0.4112 0.115741,0.7547 0.04687,0.9024 -0.0687,0.1472 -0.167909,0.2611 -0.699218,0.2617 -0.544654,-0 -0.667737,-0.1243 -0.744141,-0.2715 -0.0764,-0.1472 -0.09108,-0.4733 0.01563,-0.875 0.138219,-0.5204 0.425588,-0.9023 0.689453,-1.332 z"/>
                </g>

                <!-- cake candle 4 -->
                <g class="hidden-sm">
                    <path style="color:#000000;font-style:normal;font-variant:normal;font-weight:normal;font-stretch:normal;font-size:medium;line-height:normal;font-family:sans-serif;text-indent:0;text-align:start;text-decoration:none;text-decoration-line:none;text-decoration-style:solid;text-decoration-color:#000000;letter-spacing:normal;word-spacing:normal;text-transform:none;direction:ltr;block-progression:tb;writing-mode:lr-tb;baseline-shift:baseline;text-anchor:start;white-space:normal;clip-rule:nonzero;display:inline;overflow:visible;visibility:visible;isolation:auto;mix-blend-mode:normal;color-interpolation:sRGB;color-interpolation-filters:linearRGB;solid-color:#000000;fill:#000000;fill-rule:nonzero;stroke:none;stroke-width:0.99999988;stroke-linecap:butt;stroke-linejoin:miter;stroke-miterlimit:4;stroke-dasharray:none;stroke-dashoffset:0;color-rendering:auto;image-rendering:auto;shape-rendering:auto;text-rendering:auto;enable-background:accumulate"
                          d="m 30.324219,1011.0742 c -0.995114,0 -1.699219,0.9402 -1.699219,1.9766 l 0,7.8965 1,0 0,-7.8965 c 0,-0.6002 0.364377,-0.9766 0.699219,-0.9766 l 0.07031,0 c 0.334844,0 0.699219,0.3764 0.699219,0.9766 l 0,7.8965 1,0 0,-7.8965 c 0,-1.0364 -0.704104,-1.9766 -1.699219,-1.9766 l -0.07031,0 z"/>
                    <path style="color:#000000;font-style:normal;font-variant:normal;font-weight:normal;font-stretch:normal;font-size:medium;line-height:normal;font-family:sans-serif;text-indent:0;text-align:start;text-decoration:none;text-decoration-line:none;text-decoration-style:solid;text-decoration-color:#000000;letter-spacing:normal;word-spacing:normal;text-transform:none;direction:ltr;block-progression:tb;writing-mode:lr-tb;baseline-shift:baseline;text-anchor:start;white-space:normal;clip-rule:nonzero;display:inline;overflow:visible;visibility:visible;isolation:auto;mix-blend-mode:normal;color-interpolation:sRGB;color-interpolation-filters:linearRGB;solid-color:#000000;fill:#000000;fill-rule:evenodd;stroke:none;stroke-width:0.99999988px;stroke-linecap:butt;stroke-linejoin:miter;stroke-miterlimit:4;stroke-dasharray:none;stroke-dashoffset:0;color-rendering:auto;image-rendering:auto;shape-rendering:auto;text-rendering:auto;enable-background:accumulate"
                          d="m 30.857422,1010.2383 -1,0 0.0039,1.3125 1,-0 -0.0039,-1.3125 z"/>
                    <path style="color:#000000;font-style:normal;font-variant:normal;font-weight:normal;font-stretch:normal;font-size:medium;line-height:normal;font-family:sans-serif;text-indent:0;text-align:start;text-decoration:none;text-decoration-line:none;text-decoration-style:solid;text-decoration-color:#000000;letter-spacing:normal;word-spacing:normal;text-transform:none;direction:ltr;block-progression:tb;writing-mode:lr-tb;baseline-shift:baseline;text-anchor:start;white-space:normal;clip-rule:nonzero;display:inline;overflow:visible;visibility:visible;isolation:auto;mix-blend-mode:normal;color-interpolation:sRGB;color-interpolation-filters:linearRGB;solid-color:#000000;fill:#000000;fill-rule:evenodd;stroke:none;stroke-width:1px;stroke-linecap:butt;stroke-linejoin:miter;stroke-miterlimit:4;stroke-dasharray:none;stroke-dashoffset:0;color-rendering:auto;image-rendering:auto;shape-rendering:auto;text-rendering:auto;enable-background:accumulate"
                          d="m 30.34375,1005.7109 -0.376953,0.4375 c -0.367786,0.4255 -0.995224,1.4057 -1.273438,2.4532 -0.139107,0.5237 -0.201217,1.0837 0.0625,1.5918 0.263718,0.508 0.868464,0.8098 1.628907,0.8125 l 0.002,0 c 0.758115,0 1.363022,-0.3201 1.605469,-0.8399 0.242446,-0.5198 0.160578,-1.0776 0.0078,-1.6035 -0.305531,-1.0517 -0.936284,-2.0228 -1.277344,-2.416 l -0.378906,-0.4356 z m 0.0039,1.8164 c 0.261338,0.4217 0.537389,0.7843 0.691406,1.3145 0.119455,0.4112 0.115745,0.7547 0.04688,0.9023 -0.0687,0.1473 -0.165968,0.2612 -0.697266,0.2618 -0.544651,-0 -0.667733,-0.1263 -0.744141,-0.2735 -0.07641,-0.1472 -0.09108,-0.4713 0.01563,-0.873 0.138087,-0.5199 0.423779,-0.9024 0.6875,-1.3321 z"/>
                </g>

                <!-- cake candle 2 -->
                <g>
                    <path style="color:#000000;font-style:normal;font-variant:normal;font-weight:normal;font-stretch:normal;font-size:medium;line-height:normal;font-family:sans-serif;text-indent:0;text-align:start;text-decoration:none;text-decoration-line:none;text-decoration-style:solid;text-decoration-color:#000000;letter-spacing:normal;word-spacing:normal;text-transform:none;direction:ltr;block-progression:tb;writing-mode:lr-tb;baseline-shift:baseline;text-anchor:start;white-space:normal;clip-rule:nonzero;display:inline;overflow:visible;visibility:visible;isolation:auto;mix-blend-mode:normal;color-interpolation:sRGB;color-interpolation-filters:linearRGB;solid-color:#000000;fill:#000000;fill-rule:nonzero;stroke:none;stroke-width:0.99999988;stroke-linecap:butt;stroke-linejoin:miter;stroke-miterlimit:4;stroke-dasharray:none;stroke-dashoffset:0;color-rendering:auto;image-rendering:auto;shape-rendering:auto;text-rendering:auto;enable-background:accumulate"
                          d="m 21.830078,1013.0117 c -0.938019,0 -1.701172,0.7824 -1.701172,1.7227 l 0,6.2109 1,0 0,-6.2109 c 0,-0.4127 0.309236,-0.7227 0.701172,-0.7227 l 0.07031,0 c 0.391936,0 0.699218,0.31 0.699218,0.7227 l 0,6.2109 1,0 0,-6.2109 c 0,-0.9403 -0.761199,-1.7227 -1.699218,-1.7227 l -0.07031,0 z"/>
                    <path style="color:#000000;font-style:normal;font-variant:normal;font-weight:normal;font-stretch:normal;font-size:medium;line-height:normal;font-family:sans-serif;text-indent:0;text-align:start;text-decoration:none;text-decoration-line:none;text-decoration-style:solid;text-decoration-color:#000000;letter-spacing:normal;word-spacing:normal;text-transform:none;direction:ltr;block-progression:tb;writing-mode:lr-tb;baseline-shift:baseline;text-anchor:start;white-space:normal;clip-rule:nonzero;display:inline;overflow:visible;visibility:visible;isolation:auto;mix-blend-mode:normal;color-interpolation:sRGB;color-interpolation-filters:linearRGB;solid-color:#000000;fill:#000000;fill-rule:evenodd;stroke:none;stroke-width:0.99999988px;stroke-linecap:butt;stroke-linejoin:miter;stroke-miterlimit:4;stroke-dasharray:none;stroke-dashoffset:0;color-rendering:auto;image-rendering:auto;shape-rendering:auto;text-rendering:auto;enable-background:accumulate"
                          d="m 21.365234,1012.4082 -0.002,1.0859 1,0 0.002,-1.0859 -1,-0 z"/>
                    <path style="color:#000000;font-style:normal;font-variant:normal;font-weight:normal;font-stretch:normal;font-size:medium;line-height:normal;font-family:sans-serif;text-indent:0;text-align:start;text-decoration:none;text-decoration-line:none;text-decoration-style:solid;text-decoration-color:#000000;letter-spacing:normal;word-spacing:normal;text-transform:none;direction:ltr;block-progression:tb;writing-mode:lr-tb;baseline-shift:baseline;text-anchor:start;white-space:normal;clip-rule:nonzero;display:inline;overflow:visible;visibility:visible;isolation:auto;mix-blend-mode:normal;color-interpolation:sRGB;color-interpolation-filters:linearRGB;solid-color:#000000;fill:#000000;fill-rule:evenodd;stroke:none;stroke-width:1px;stroke-linecap:butt;stroke-linejoin:miter;stroke-miterlimit:4;stroke-dasharray:none;stroke-dashoffset:0;color-rendering:auto;image-rendering:auto;shape-rendering:auto;text-rendering:auto;enable-background:accumulate"
                          d="m 21.953125,1007.6973 -0.378906,0.4375 c -0.34098,0.3931 -0.969859,1.3643 -1.275391,2.416 -0.152766,0.5258 -0.23659,1.0837 0.0059,1.6035 0.242449,0.5198 0.849309,0.8379 1.607421,0.8379 l 0.002,0 c 0.76044,-0 1.363232,-0.3025 1.626954,-0.8106 0.263721,-0.508 0.20356,-1.068 0.06445,-1.5918 -0.278214,-1.0474 -0.905712,-2.0296 -1.273438,-2.455 l -0.378906,-0.4375 z m -0.0039,1.8164 c 0.263864,0.4297 0.551234,0.8116 0.689453,1.332 0.106703,0.4017 0.09203,0.7278 0.01563,0.875 -0.07623,0.1468 -0.20074,0.269 -0.742188,0.2715 -0.534751,0 -0.632305,-0.1141 -0.701171,-0.2617 -0.06887,-0.1477 -0.07258,-0.4912 0.04687,-0.9024 0.154018,-0.5301 0.430063,-0.8928 0.691407,-1.3144 z"/>
                </g>

                <!-- cake candle 1 -->
                <g class="hidden-sm">
                    <path style="color:#000000;font-style:normal;font-variant:normal;font-weight:normal;font-stretch:normal;font-size:medium;line-height:normal;font-family:sans-serif;text-indent:0;text-align:start;text-decoration:none;text-decoration-line:none;text-decoration-style:solid;text-decoration-color:#000000;letter-spacing:normal;word-spacing:normal;text-transform:none;direction:ltr;block-progression:tb;writing-mode:lr-tb;baseline-shift:baseline;text-anchor:start;white-space:normal;clip-rule:nonzero;display:inline;overflow:visible;visibility:visible;isolation:auto;mix-blend-mode:normal;color-interpolation:sRGB;color-interpolation-filters:linearRGB;solid-color:#000000;fill:#000000;fill-rule:nonzero;stroke:none;stroke-width:0.99999988;stroke-linecap:butt;stroke-linejoin:miter;stroke-miterlimit:4;stroke-dasharray:none;stroke-dashoffset:0;color-rendering:auto;image-rendering:auto;shape-rendering:auto;text-rendering:auto;enable-background:accumulate"
                          d="m 17.605469,1011.0742 c -0.995115,0 -1.699219,0.9402 -1.699219,1.9766 l 0,7.8965 1,0 0,-7.8965 c 0,-0.6002 0.364375,-0.9766 0.699219,-0.9766 l 0.07031,0 c 0.334845,0 0.699219,0.3764 0.699219,0.9766 l 0,7.8965 1,0 0,-7.8965 c 0,-1.0364 -0.704104,-1.9766 -1.699219,-1.9766 l -0.07031,0 z"/>
                    <path style="color:#000000;font-style:normal;font-variant:normal;font-weight:normal;font-stretch:normal;font-size:medium;line-height:normal;font-family:sans-serif;text-indent:0;text-align:start;text-decoration:none;text-decoration-line:none;text-decoration-style:solid;text-decoration-color:#000000;letter-spacing:normal;word-spacing:normal;text-transform:none;direction:ltr;block-progression:tb;writing-mode:lr-tb;baseline-shift:baseline;text-anchor:start;white-space:normal;clip-rule:nonzero;display:inline;overflow:visible;visibility:visible;isolation:auto;mix-blend-mode:normal;color-interpolation:sRGB;color-interpolation-filters:linearRGB;solid-color:#000000;fill:#000000;fill-rule:evenodd;stroke:none;stroke-width:0.99999988px;stroke-linecap:butt;stroke-linejoin:miter;stroke-miterlimit:4;stroke-dasharray:none;stroke-dashoffset:0;color-rendering:auto;image-rendering:auto;shape-rendering:auto;text-rendering:auto;enable-background:accumulate"
                          d="m 17.142578,1010.2383 -0.0039,1.3125 1,0 0.0039,-1.3125 -1,-0 z"/>
                    <path style="color:#000000;font-style:normal;font-variant:normal;font-weight:normal;font-stretch:normal;font-size:medium;line-height:normal;font-family:sans-serif;text-indent:0;text-align:start;text-decoration:none;text-decoration-line:none;text-decoration-style:solid;text-decoration-color:#000000;letter-spacing:normal;word-spacing:normal;text-transform:none;direction:ltr;block-progression:tb;writing-mode:lr-tb;baseline-shift:baseline;text-anchor:start;white-space:normal;clip-rule:nonzero;display:inline;overflow:visible;visibility:visible;isolation:auto;mix-blend-mode:normal;color-interpolation:sRGB;color-interpolation-filters:linearRGB;solid-color:#000000;fill:#000000;fill-rule:evenodd;stroke:none;stroke-width:1px;stroke-linecap:butt;stroke-linejoin:miter;stroke-miterlimit:4;stroke-dasharray:none;stroke-dashoffset:0;color-rendering:auto;image-rendering:auto;shape-rendering:auto;text-rendering:auto;enable-background:accumulate"
                          d="m 17.65625,1005.7109 -0.378906,0.4356 c -0.34106,0.3932 -0.971812,1.3643 -1.277344,2.416 -0.152766,0.5259 -0.234634,1.0837 0.0078,1.6035 0.242447,0.5198 0.847354,0.8399 1.605469,0.8399 l 0.002,0 c 0.760443,-0 1.365189,-0.3045 1.628907,-0.8125 0.263718,-0.5081 0.201607,-1.0681 0.0625,-1.5918 -0.278215,-1.0475 -0.905653,-2.0277 -1.273438,-2.4532 l -0.376953,-0.4375 z m -0.0039,1.8164 c 0.263721,0.4297 0.549413,0.8122 0.6875,1.3321 0.106703,0.4017 0.09203,0.7258 0.01563,0.873 -0.07623,0.1469 -0.200737,0.271 -0.742188,0.2735 -0.534748,0 -0.630349,-0.1141 -0.699219,-0.2618 -0.06887,-0.1476 -0.07258,-0.4911 0.04688,-0.9023 0.154017,-0.5302 0.430068,-0.8928 0.691406,-1.3145 z"/>
                </g>
            </g>
        </g>
    </g>
</svg>