<svg xmlns="http://www.w3.org/2000/svg">
    <symbol id="apple" viewBox="0 0 100 100">
        <g>
            <path d="M44.0264224,30.8038661 C44.0264224,30.8038661 23.51917,23.1646144 20.0487347,44.1655843 C19.2634817,48.9174594 21.8966762,64.8020284 28.930804,71.6982382 C35.9649318,78.594448 44.5304381,72.1147374 45.1386548,72.5344563"/>
            <path d="M68.0756709,30.809579 C68.0756709,30.809579 47.6308162,23.1646144 44.160381,44.1655843 C43.375128,48.9174594 46.0083225,64.8020284 53.0424503,71.6982382 C60.0765781,78.594448 67.9304381,72.4686581 68.5386548,72.888377" transform="translate(56.282602, 52.224539) scale(-1, 1) translate(-56.282602, -52.224539) "/>
            <path d="M44.2501171,30.9465514 C44.2501171,30.9465514 45.7219492,21.1006236 37.0338871,18.8445536" stroke-linecap="round"/>
            <path d="M45.3937068,29.9707363 C45.3937068,29.9707363 41.7190468,18.741722 53.536979,17.8184376 C56.7401995,17.5681837 59.3870974,18.4369134 59.4404046,18.816155 C59.5837683,19.8360839 49.6332979,22.5322238 46.8265318,29.8513807"/>
        </g>
    </symbol>

    <symbol id="cherry" viewBox="0 0 100 100">
        <g>
            <path d="M31.5595832,48.9999993 C31.5595832,48.9999993 37.3563953,23.8928693 58.0642384,18.7005875" stroke-linecap="round"/>
            <path d="M42.384137,43.9841604 C42.384137,43.9841604 48.6556565,34.0002616 65.4742535,28.2681267" stroke-linecap="round" transform="translate(53.929195, 36.126144) rotate(-78.000000) translate(-53.929195, -36.126144) "/>
            <circle cx="29.5" cy="58.5" r="13.5"/>
            <circle cx="63.5" cy="58.5" r="13.5"/>
            <path d="M33.3937068,24.872214 C33.3937068,24.872214 29.7190468,13.6431997 41.536979,12.7199152 C44.7401995,12.4696613 47.3870974,13.3383911 47.4404046,13.7176327 C47.5837683,14.7375616 36.8690394,17.232453 34.0622734,24.5516099" transform="translate(40.147645, 18.773790) scale(-1, 1) rotate(18.000000) translate(-40.147645, -18.773790) "/>
        </g>
    </symbol>

    <symbol id="pinapple" viewBox="0 0 100 100">
        <g>
            <path d="M45.4999997,81.05533 C53.9159612,81.0553301 62.9008657,76.8126228 62.9008657,62.5863352 C62.9008657,48.3600477 54.3706137,38.6737077 45.4999997,38.6737077 C36.6293858,38.6737077 28.0991342,48.3600477 28.0991342,62.5863352 C28.0991342,76.8126228 37.0840383,81.0553299 45.4999997,81.05533 Z"/>
            <polyline points="35.7365106 42.1549442 29.763335 31.0278699 38.4081772 34.4480941 31.2076968 18.5438531 41.8097011 25.857084 45.1826107 11.0042713 48.6170185 25.857084 58.6020008 18.9713094 52.2969578 34.4480935 60.3699628 31.005493 54.9659794 41.7713649"/>
            <polyline points="34.3907232 44.0266664 61.1609005 54.4805462 29.0056576 68.1884192 55.1338144 78.4987109"/>
            <polyline points="56.6378589 44.0805467 30.0056576 54.4805462 34.9517546 56.5890817 56.2230517 65.6570971 62.1609005 68.1884192 35.7870175 78.5956756"/>
            <polygon points="45.1732483 6.40277593 46.9887085 14.4027759 43.3862915 14.4027759"/>
        </g>
    </symbol>

    <symbol id="pear" viewBox="0 0 100 100">
        <g>
            <path d="M44.953014,27.5903169 C44.953014,27.5903169 46.2310285,17.6026954 37.5429664,15.3466255" stroke-linecap="round"/>
            <path d="M45.3937068,26.872214 C45.3937068,26.872214 41.7190468,15.6431997 53.536979,14.7199152 C56.7401995,14.4696613 59.3870974,15.3383911 59.4404046,15.7176327 C59.5837683,16.7375616 49.5364324,19.5530573 46.7296664,26.8722142"/>
            <path d="M27.1696431,27.5905706 C30.1559099,27.0044599 40.0998497,26.6200681 40.0619626,39.9559414 C40.0240755,53.2918147 49.8506353,66.208281 43.175139,73.8065225 C36.4996427,81.4047641 26.0370069,77.3551148 26.0370069,77.3551148" stroke-linecap="round" transform="translate(35.768503, 52.902062) scale(-1, 1) translate(-35.768503, -52.902062) "/>
            <path d="M44.9903382,27.7532007 C47.976605,27.1670899 57.8450821,26.6200681 57.8071949,39.9559414 C57.7693078,53.2918147 67.8981377,65.8920457 61.2226415,73.4902872 C55.7441179,79.7261 47.3049273,78.4240525 44.4546341,77.7566255" stroke-linecap="round"/>
        </g>
    </symbol>
</svg>